<svg xmlns="http://www.w3.org/2000/svg" viewBox="0 0 188 32" role="img" aria-label="Bloviate">
  <defs>
    <linearGradient id="bd" x1="0" y1="0" x2="0" y2="1">
      <stop offset="0" stop-color="#a48bff"/>
      <stop offset="1" stop-color="#8a6bff"/>
    </linearGradient>
  </defs>
  <!-- speech-bubble mark -->
  <g transform="translate(1 3) scale(0.8)">
    <path fill="url(#bd)" d="M7 3h18a4 4 0 0 1 4 4v12a4 4 0 0 1-4 4h-9l-7 6v-6H7a4 4 0 0 1-4-4V7a4 4 0 0 1 4-4Z"/>
    <rect x="8"  y="8"    width="16" height="2.6" rx="1.3" fill="#ff6b5c"/>
    <rect x="8"  y="12.7" width="13" height="2.6" rx="1.3" fill="#ffffff" opacity="0.95"/>
    <rect x="8"  y="17.4" width="9"  height="2.6" rx="1.3" fill="#ffffff" opacity="0.82"/>
  </g>
  <!-- wordmark (light text for dark backgrounds) -->
  <text x="36" y="23" font-family="'Space Grotesk','Segoe UI',system-ui,-apple-system,sans-serif"
        font-size="22" font-weight="700" letter-spacing="-0.5" fill="#f5f5f7">bloviate</text>
</svg>
